<svg width="552" height="183" viewBox="0 0 552 183" fill="none" xmlns="http://www.w3.org/2000/svg">
<path d="M217.661 106H207.05V49.3H217.661V106ZM270.381 91.501L277.671 98.872C271.839 104.623 264.306 107.296 256.125 107.296C235.065 107.296 226.155 92.797 226.074 78.055C225.993 63.232 235.632 48.166 256.125 48.166C263.82 48.166 271.11 51.082 276.942 56.833L269.814 63.718C266.088 60.073 261.066 58.372 256.125 58.372C242.436 58.372 236.523 68.578 236.604 78.055C236.685 87.451 242.112 97.252 256.125 97.252C261.066 97.252 266.655 95.227 270.381 91.501ZM282.907 49.3H293.599V96.118H322.759V106H282.907V49.3ZM376.255 49.3L352.684 106.243H341.587L318.016 49.3H330.004L347.095 93.445L364.267 49.3H376.255ZM425.094 95.47V106H382.65C382.65 87.127 382.65 68.173 382.65 49.3H425.094V59.668H393.261V72.709H423.96V82.672H393.261V95.47H425.094ZM429.227 67.525L433.115 49.3H443.321L437.003 67.525H429.227ZM459.614 65.743H449.003C449.084 53.755 460.424 48.571 470.873 48.571C482.213 48.571 494.525 53.188 494.525 66.634C494.525 81.052 483.671 83.806 471.764 83.806C467.066 83.806 459.452 85.021 459.452 91.177V96.037H494.687V106H448.76C448.76 101.059 448.76 96.118 448.76 91.096C448.76 78.055 460.586 74.167 471.764 74.167C476.057 74.167 483.914 73.438 483.914 66.877C483.914 60.721 478.325 57.805 471.035 57.805C465.446 57.805 459.695 60.64 459.614 65.743ZM524.335 49.381H540.616V84.859H547.258V95.227H540.616V106H530.086V95.227H499.792L498.82 84.373L524.335 49.381ZM510.889 84.859H530.086V58.615L510.889 84.859Z" fill="#E59700"/>
<path d="M170.57 124.523H172.141V136H170.57V124.523ZM174.484 127.633H175.82V128.82C176.216 128.331 176.635 127.979 177.078 127.766C177.521 127.552 178.013 127.445 178.555 127.445C179.742 127.445 180.544 127.859 180.961 128.688C181.19 129.141 181.305 129.789 181.305 130.633V136H179.875V130.727C179.875 130.216 179.799 129.805 179.648 129.492C179.398 128.971 178.945 128.711 178.289 128.711C177.956 128.711 177.682 128.745 177.469 128.812C177.083 128.927 176.745 129.156 176.453 129.5C176.219 129.776 176.065 130.062 175.992 130.359C175.924 130.651 175.891 131.07 175.891 131.617V136H174.484V127.633ZM183.672 125.297H185.094V127.633H186.43V128.781H185.094V134.242C185.094 134.534 185.193 134.729 185.391 134.828C185.5 134.885 185.682 134.914 185.938 134.914C186.005 134.914 186.078 134.914 186.156 134.914C186.234 134.909 186.326 134.901 186.43 134.891V136C186.268 136.047 186.099 136.081 185.922 136.102C185.75 136.122 185.562 136.133 185.359 136.133C184.703 136.133 184.258 135.966 184.023 135.633C183.789 135.294 183.672 134.857 183.672 134.32V128.781H182.539V127.633H183.672V125.297ZM191.328 127.445C191.922 127.445 192.497 127.586 193.055 127.867C193.612 128.143 194.036 128.503 194.328 128.945C194.609 129.367 194.797 129.859 194.891 130.422C194.974 130.807 195.016 131.422 195.016 132.266H188.883C188.909 133.115 189.109 133.797 189.484 134.312C189.859 134.823 190.44 135.078 191.227 135.078C191.961 135.078 192.547 134.836 192.984 134.352C193.234 134.07 193.411 133.745 193.516 133.375H194.898C194.862 133.682 194.74 134.026 194.531 134.406C194.328 134.781 194.099 135.089 193.844 135.328C193.417 135.745 192.888 136.026 192.258 136.172C191.919 136.255 191.536 136.297 191.109 136.297C190.068 136.297 189.185 135.919 188.461 135.164C187.737 134.404 187.375 133.341 187.375 131.977C187.375 130.633 187.74 129.542 188.469 128.703C189.198 127.865 190.151 127.445 191.328 127.445ZM193.57 131.148C193.513 130.539 193.38 130.052 193.172 129.688C192.786 129.01 192.143 128.672 191.242 128.672C190.596 128.672 190.055 128.906 189.617 129.375C189.18 129.839 188.948 130.43 188.922 131.148H193.57ZM196.789 127.633H198.125V129.078C198.234 128.797 198.503 128.456 198.93 128.055C199.357 127.648 199.849 127.445 200.406 127.445C200.432 127.445 200.477 127.448 200.539 127.453C200.602 127.458 200.708 127.469 200.859 127.484V128.969C200.776 128.953 200.698 128.943 200.625 128.938C200.557 128.932 200.482 128.93 200.398 128.93C199.69 128.93 199.146 129.159 198.766 129.617C198.385 130.07 198.195 130.594 198.195 131.188V136H196.789V127.633ZM202.078 127.633H203.414V128.82C203.81 128.331 204.229 127.979 204.672 127.766C205.115 127.552 205.607 127.445 206.148 127.445C207.336 127.445 208.138 127.859 208.555 128.688C208.784 129.141 208.898 129.789 208.898 130.633V136H207.469V130.727C207.469 130.216 207.393 129.805 207.242 129.492C206.992 128.971 206.539 128.711 205.883 128.711C205.549 128.711 205.276 128.745 205.062 128.812C204.677 128.927 204.339 129.156 204.047 129.5C203.812 129.776 203.659 130.062 203.586 130.359C203.518 130.651 203.484 131.07 203.484 131.617V136H202.078V127.633ZM212.062 133.773C212.062 134.18 212.211 134.5 212.508 134.734C212.805 134.969 213.156 135.086 213.562 135.086C214.057 135.086 214.536 134.971 215 134.742C215.781 134.362 216.172 133.74 216.172 132.875V131.742C216 131.852 215.779 131.943 215.508 132.016C215.237 132.089 214.971 132.141 214.711 132.172L213.859 132.281C213.349 132.349 212.966 132.456 212.711 132.602C212.279 132.846 212.062 133.237 212.062 133.773ZM215.469 130.93C215.792 130.888 216.008 130.753 216.117 130.523C216.18 130.398 216.211 130.219 216.211 129.984C216.211 129.505 216.039 129.159 215.695 128.945C215.357 128.727 214.87 128.617 214.234 128.617C213.5 128.617 212.979 128.815 212.672 129.211C212.5 129.43 212.388 129.755 212.336 130.188H211.023C211.049 129.156 211.383 128.44 212.023 128.039C212.669 127.633 213.417 127.43 214.266 127.43C215.25 127.43 216.049 127.617 216.664 127.992C217.273 128.367 217.578 128.951 217.578 129.742V134.562C217.578 134.708 217.607 134.826 217.664 134.914C217.727 135.003 217.854 135.047 218.047 135.047C218.109 135.047 218.18 135.044 218.258 135.039C218.336 135.029 218.419 135.016 218.508 135V136.039C218.289 136.102 218.122 136.141 218.008 136.156C217.893 136.172 217.737 136.18 217.539 136.18C217.055 136.18 216.703 136.008 216.484 135.664C216.37 135.482 216.289 135.224 216.242 134.891C215.956 135.266 215.544 135.591 215.008 135.867C214.471 136.143 213.88 136.281 213.234 136.281C212.458 136.281 211.823 136.047 211.328 135.578C210.839 135.104 210.594 134.513 210.594 133.805C210.594 133.029 210.836 132.427 211.32 132C211.805 131.573 212.44 131.31 213.227 131.211L215.469 130.93ZM220.172 125.297H221.594V127.633H222.93V128.781H221.594V134.242C221.594 134.534 221.693 134.729 221.891 134.828C222 134.885 222.182 134.914 222.438 134.914C222.505 134.914 222.578 134.914 222.656 134.914C222.734 134.909 222.826 134.901 222.93 134.891V136C222.768 136.047 222.599 136.081 222.422 136.102C222.25 136.122 222.062 136.133 221.859 136.133C221.203 136.133 220.758 135.966 220.523 135.633C220.289 135.294 220.172 134.857 220.172 134.32V128.781H219.039V127.633H220.172V125.297ZM224.344 127.672H225.773V136H224.344V127.672ZM224.344 124.523H225.773V126.117H224.344V124.523ZM231.227 135.094C232.159 135.094 232.797 134.742 233.141 134.039C233.49 133.331 233.664 132.544 233.664 131.68C233.664 130.898 233.539 130.263 233.289 129.773C232.893 129.003 232.211 128.617 231.242 128.617C230.383 128.617 229.758 128.945 229.367 129.602C228.977 130.258 228.781 131.049 228.781 131.977C228.781 132.867 228.977 133.609 229.367 134.203C229.758 134.797 230.378 135.094 231.227 135.094ZM231.281 127.391C232.359 127.391 233.271 127.75 234.016 128.469C234.76 129.188 235.133 130.245 235.133 131.641C235.133 132.99 234.805 134.104 234.148 134.984C233.492 135.865 232.474 136.305 231.094 136.305C229.943 136.305 229.029 135.917 228.352 135.141C227.674 134.359 227.336 133.312 227.336 132C227.336 130.594 227.693 129.474 228.406 128.641C229.12 127.807 230.078 127.391 231.281 127.391ZM236.812 127.633H238.148V128.82C238.544 128.331 238.964 127.979 239.406 127.766C239.849 127.552 240.341 127.445 240.883 127.445C242.07 127.445 242.872 127.859 243.289 128.688C243.518 129.141 243.633 129.789 243.633 130.633V136H242.203V130.727C242.203 130.216 242.128 129.805 241.977 129.492C241.727 128.971 241.273 128.711 240.617 128.711C240.284 128.711 240.01 128.745 239.797 128.812C239.411 128.927 239.073 129.156 238.781 129.5C238.547 129.776 238.393 130.062 238.32 130.359C238.253 130.651 238.219 131.07 238.219 131.617V136H236.812V127.633ZM246.797 133.773C246.797 134.18 246.945 134.5 247.242 134.734C247.539 134.969 247.891 135.086 248.297 135.086C248.792 135.086 249.271 134.971 249.734 134.742C250.516 134.362 250.906 133.74 250.906 132.875V131.742C250.734 131.852 250.513 131.943 250.242 132.016C249.971 132.089 249.706 132.141 249.445 132.172L248.594 132.281C248.083 132.349 247.701 132.456 247.445 132.602C247.013 132.846 246.797 133.237 246.797 133.773ZM250.203 130.93C250.526 130.888 250.742 130.753 250.852 130.523C250.914 130.398 250.945 130.219 250.945 129.984C250.945 129.505 250.773 129.159 250.43 128.945C250.091 128.727 249.604 128.617 248.969 128.617C248.234 128.617 247.714 128.815 247.406 129.211C247.234 129.43 247.122 129.755 247.07 130.188H245.758C245.784 129.156 246.117 128.44 246.758 128.039C247.404 127.633 248.151 127.43 249 127.43C249.984 127.43 250.784 127.617 251.398 127.992C252.008 128.367 252.312 128.951 252.312 129.742V134.562C252.312 134.708 252.341 134.826 252.398 134.914C252.461 135.003 252.589 135.047 252.781 135.047C252.844 135.047 252.914 135.044 252.992 135.039C253.07 135.029 253.154 135.016 253.242 135V136.039C253.023 136.102 252.857 136.141 252.742 136.156C252.628 136.172 252.471 136.18 252.273 136.18C251.789 136.18 251.438 136.008 251.219 135.664C251.104 135.482 251.023 135.224 250.977 134.891C250.69 135.266 250.279 135.591 249.742 135.867C249.206 136.143 248.615 136.281 247.969 136.281C247.193 136.281 246.557 136.047 246.062 135.578C245.573 135.104 245.328 134.513 245.328 133.805C245.328 133.029 245.57 132.427 246.055 132C246.539 131.573 247.174 131.31 247.961 131.211L250.203 130.93ZM254.664 124.523H256.07V136H254.664V124.523ZM267.664 124.211C269.117 124.211 270.245 124.594 271.047 125.359C271.849 126.125 272.294 126.995 272.383 127.969H270.867C270.695 127.229 270.352 126.643 269.836 126.211C269.326 125.779 268.607 125.562 267.68 125.562C266.549 125.562 265.635 125.961 264.938 126.758C264.245 127.549 263.898 128.766 263.898 130.406C263.898 131.75 264.211 132.841 264.836 133.68C265.466 134.513 266.404 134.93 267.648 134.93C268.794 134.93 269.667 134.49 270.266 133.609C270.583 133.146 270.82 132.536 270.977 131.781H272.492C272.357 132.99 271.909 134.003 271.148 134.82C270.237 135.805 269.008 136.297 267.461 136.297C266.128 136.297 265.008 135.893 264.102 135.086C262.909 134.018 262.312 132.37 262.312 130.141C262.312 128.448 262.76 127.06 263.656 125.977C264.625 124.799 265.961 124.211 267.664 124.211ZM277.523 135.094C278.456 135.094 279.094 134.742 279.438 134.039C279.786 133.331 279.961 132.544 279.961 131.68C279.961 130.898 279.836 130.263 279.586 129.773C279.19 129.003 278.508 128.617 277.539 128.617C276.68 128.617 276.055 128.945 275.664 129.602C275.273 130.258 275.078 131.049 275.078 131.977C275.078 132.867 275.273 133.609 275.664 134.203C276.055 134.797 276.674 135.094 277.523 135.094ZM277.578 127.391C278.656 127.391 279.568 127.75 280.312 128.469C281.057 129.188 281.43 130.245 281.43 131.641C281.43 132.99 281.102 134.104 280.445 134.984C279.789 135.865 278.771 136.305 277.391 136.305C276.24 136.305 275.326 135.917 274.648 135.141C273.971 134.359 273.633 133.312 273.633 132C273.633 130.594 273.99 129.474 274.703 128.641C275.417 127.807 276.375 127.391 277.578 127.391ZM283.109 127.633H284.445V128.82C284.841 128.331 285.26 127.979 285.703 127.766C286.146 127.552 286.638 127.445 287.18 127.445C288.367 127.445 289.169 127.859 289.586 128.688C289.815 129.141 289.93 129.789 289.93 130.633V136H288.5V130.727C288.5 130.216 288.424 129.805 288.273 129.492C288.023 128.971 287.57 128.711 286.914 128.711C286.581 128.711 286.307 128.745 286.094 128.812C285.708 128.927 285.37 129.156 285.078 129.5C284.844 129.776 284.69 130.062 284.617 130.359C284.549 130.651 284.516 131.07 284.516 131.617V136H283.109V127.633ZM292.367 126.359C292.388 125.776 292.49 125.349 292.672 125.078C293 124.599 293.633 124.359 294.57 124.359C294.659 124.359 294.75 124.362 294.844 124.367C294.938 124.372 295.044 124.38 295.164 124.391V125.672C295.018 125.661 294.911 125.656 294.844 125.656C294.781 125.651 294.721 125.648 294.664 125.648C294.237 125.648 293.982 125.76 293.898 125.984C293.815 126.203 293.773 126.766 293.773 127.672H295.164V128.781H293.758V136H292.367V128.781H291.203V127.672H292.367V126.359ZM299.953 127.445C300.547 127.445 301.122 127.586 301.68 127.867C302.237 128.143 302.661 128.503 302.953 128.945C303.234 129.367 303.422 129.859 303.516 130.422C303.599 130.807 303.641 131.422 303.641 132.266H297.508C297.534 133.115 297.734 133.797 298.109 134.312C298.484 134.823 299.065 135.078 299.852 135.078C300.586 135.078 301.172 134.836 301.609 134.352C301.859 134.07 302.036 133.745 302.141 133.375H303.523C303.487 133.682 303.365 134.026 303.156 134.406C302.953 134.781 302.724 135.089 302.469 135.328C302.042 135.745 301.513 136.026 300.883 136.172C300.544 136.255 300.161 136.297 299.734 136.297C298.693 136.297 297.81 135.919 297.086 135.164C296.362 134.404 296 133.341 296 131.977C296 130.633 296.365 129.542 297.094 128.703C297.823 127.865 298.776 127.445 299.953 127.445ZM302.195 131.148C302.138 130.539 302.005 130.052 301.797 129.688C301.411 129.01 300.768 128.672 299.867 128.672C299.221 128.672 298.68 128.906 298.242 129.375C297.805 129.839 297.573 130.43 297.547 131.148H302.195ZM305.414 127.633H306.75V129.078C306.859 128.797 307.128 128.456 307.555 128.055C307.982 127.648 308.474 127.445 309.031 127.445C309.057 127.445 309.102 127.448 309.164 127.453C309.227 127.458 309.333 127.469 309.484 127.484V128.969C309.401 128.953 309.323 128.943 309.25 128.938C309.182 128.932 309.107 128.93 309.023 128.93C308.315 128.93 307.771 129.159 307.391 129.617C307.01 130.07 306.82 130.594 306.82 131.188V136H305.414V127.633ZM314.188 127.445C314.781 127.445 315.357 127.586 315.914 127.867C316.471 128.143 316.896 128.503 317.188 128.945C317.469 129.367 317.656 129.859 317.75 130.422C317.833 130.807 317.875 131.422 317.875 132.266H311.742C311.768 133.115 311.969 133.797 312.344 134.312C312.719 134.823 313.299 135.078 314.086 135.078C314.82 135.078 315.406 134.836 315.844 134.352C316.094 134.07 316.271 133.745 316.375 133.375H317.758C317.721 133.682 317.599 134.026 317.391 134.406C317.188 134.781 316.958 135.089 316.703 135.328C316.276 135.745 315.747 136.026 315.117 136.172C314.779 136.255 314.396 136.297 313.969 136.297C312.927 136.297 312.044 135.919 311.32 135.164C310.596 134.404 310.234 133.341 310.234 131.977C310.234 130.633 310.599 129.542 311.328 128.703C312.057 127.865 313.01 127.445 314.188 127.445ZM316.43 131.148C316.372 130.539 316.24 130.052 316.031 129.688C315.646 129.01 315.003 128.672 314.102 128.672C313.456 128.672 312.914 128.906 312.477 129.375C312.039 129.839 311.807 130.43 311.781 131.148H316.43ZM319.609 127.633H320.945V128.82C321.341 128.331 321.76 127.979 322.203 127.766C322.646 127.552 323.138 127.445 323.68 127.445C324.867 127.445 325.669 127.859 326.086 128.688C326.315 129.141 326.43 129.789 326.43 130.633V136H325V130.727C325 130.216 324.924 129.805 324.773 129.492C324.523 128.971 324.07 128.711 323.414 128.711C323.081 128.711 322.807 128.745 322.594 128.812C322.208 128.927 321.87 129.156 321.578 129.5C321.344 129.776 321.19 130.062 321.117 130.359C321.049 130.651 321.016 131.07 321.016 131.617V136H319.609V127.633ZM331.742 127.391C332.685 127.391 333.451 127.62 334.039 128.078C334.633 128.536 334.99 129.326 335.109 130.445H333.742C333.659 129.93 333.469 129.503 333.172 129.164C332.875 128.82 332.398 128.648 331.742 128.648C330.846 128.648 330.206 129.086 329.82 129.961C329.57 130.529 329.445 131.229 329.445 132.062C329.445 132.901 329.622 133.607 329.977 134.18C330.331 134.753 330.888 135.039 331.648 135.039C332.232 135.039 332.693 134.862 333.031 134.508C333.375 134.148 333.612 133.659 333.742 133.039H335.109C334.953 134.148 334.562 134.961 333.938 135.477C333.312 135.987 332.513 136.242 331.539 136.242C330.445 136.242 329.573 135.844 328.922 135.047C328.271 134.245 327.945 133.245 327.945 132.047C327.945 130.578 328.302 129.435 329.016 128.617C329.729 127.799 330.638 127.391 331.742 127.391ZM340 127.445C340.594 127.445 341.169 127.586 341.727 127.867C342.284 128.143 342.708 128.503 343 128.945C343.281 129.367 343.469 129.859 343.562 130.422C343.646 130.807 343.688 131.422 343.688 132.266H337.555C337.581 133.115 337.781 133.797 338.156 134.312C338.531 134.823 339.112 135.078 339.898 135.078C340.633 135.078 341.219 134.836 341.656 134.352C341.906 134.07 342.083 133.745 342.188 133.375H343.57C343.534 133.682 343.411 134.026 343.203 134.406C343 134.781 342.771 135.089 342.516 135.328C342.089 135.745 341.56 136.026 340.93 136.172C340.591 136.255 340.208 136.297 339.781 136.297C338.74 136.297 337.857 135.919 337.133 135.164C336.409 134.404 336.047 133.341 336.047 131.977C336.047 130.633 336.411 129.542 337.141 128.703C337.87 127.865 338.823 127.445 340 127.445ZM342.242 131.148C342.185 130.539 342.052 130.052 341.844 129.688C341.458 129.01 340.815 128.672 339.914 128.672C339.268 128.672 338.727 128.906 338.289 129.375C337.852 129.839 337.62 130.43 337.594 131.148H342.242ZM353.195 135.094C354.128 135.094 354.766 134.742 355.109 134.039C355.458 133.331 355.633 132.544 355.633 131.68C355.633 130.898 355.508 130.263 355.258 129.773C354.862 129.003 354.18 128.617 353.211 128.617C352.352 128.617 351.727 128.945 351.336 129.602C350.945 130.258 350.75 131.049 350.75 131.977C350.75 132.867 350.945 133.609 351.336 134.203C351.727 134.797 352.346 135.094 353.195 135.094ZM353.25 127.391C354.328 127.391 355.24 127.75 355.984 128.469C356.729 129.188 357.102 130.245 357.102 131.641C357.102 132.99 356.773 134.104 356.117 134.984C355.461 135.865 354.443 136.305 353.062 136.305C351.911 136.305 350.997 135.917 350.32 135.141C349.643 134.359 349.305 133.312 349.305 132C349.305 130.594 349.661 129.474 350.375 128.641C351.089 127.807 352.047 127.391 353.25 127.391ZM358.781 127.633H360.117V128.82C360.513 128.331 360.932 127.979 361.375 127.766C361.818 127.552 362.31 127.445 362.852 127.445C364.039 127.445 364.841 127.859 365.258 128.688C365.487 129.141 365.602 129.789 365.602 130.633V136H364.172V130.727C364.172 130.216 364.096 129.805 363.945 129.492C363.695 128.971 363.242 128.711 362.586 128.711C362.253 128.711 361.979 128.745 361.766 128.812C361.38 128.927 361.042 129.156 360.75 129.5C360.516 129.776 360.362 130.062 360.289 130.359C360.221 130.651 360.188 131.07 360.188 131.617V136H358.781V127.633ZM372.328 124.523H373.883V134.633H379.695V136H372.328V124.523ZM381.047 127.672H382.477V136H381.047V127.672ZM381.047 124.523H382.477V126.117H381.047V124.523ZM385.297 127.633L387.531 134.445L389.867 127.633H391.406L388.25 136H386.75L383.664 127.633H385.297ZM392.609 127.672H394.039V136H392.609V127.672ZM392.609 124.523H394.039V126.117H392.609V124.523ZM396.172 127.633H397.508V128.82C397.904 128.331 398.323 127.979 398.766 127.766C399.208 127.552 399.701 127.445 400.242 127.445C401.43 127.445 402.232 127.859 402.648 128.688C402.878 129.141 402.992 129.789 402.992 130.633V136H401.562V130.727C401.562 130.216 401.487 129.805 401.336 129.492C401.086 128.971 400.633 128.711 399.977 128.711C399.643 128.711 399.37 128.745 399.156 128.812C398.771 128.927 398.432 129.156 398.141 129.5C397.906 129.776 397.753 130.062 397.68 130.359C397.612 130.651 397.578 131.07 397.578 131.617V136H396.172V127.633ZM408.031 127.484C408.688 127.484 409.26 127.646 409.75 127.969C410.016 128.151 410.286 128.417 410.562 128.766V127.711H411.859V135.32C411.859 136.383 411.703 137.221 411.391 137.836C410.807 138.971 409.706 139.539 408.086 139.539C407.185 139.539 406.427 139.336 405.812 138.93C405.198 138.529 404.854 137.898 404.781 137.039H406.211C406.279 137.414 406.414 137.703 406.617 137.906C406.935 138.219 407.435 138.375 408.117 138.375C409.195 138.375 409.901 137.995 410.234 137.234C410.432 136.786 410.523 135.987 410.508 134.836C410.227 135.263 409.888 135.581 409.492 135.789C409.096 135.997 408.573 136.102 407.922 136.102C407.016 136.102 406.221 135.781 405.539 135.141C404.862 134.495 404.523 133.43 404.523 131.945C404.523 130.544 404.865 129.451 405.547 128.664C406.234 127.878 407.062 127.484 408.031 127.484ZM410.562 131.781C410.562 130.745 410.349 129.977 409.922 129.477C409.495 128.977 408.951 128.727 408.289 128.727C407.299 128.727 406.622 129.19 406.258 130.117C406.065 130.612 405.969 131.26 405.969 132.062C405.969 133.005 406.159 133.724 406.539 134.219C406.924 134.708 407.44 134.953 408.086 134.953C409.096 134.953 409.807 134.497 410.219 133.586C410.448 133.07 410.562 132.469 410.562 131.781ZM419.531 124.523L422.828 134.297L426.086 124.523H427.828L423.641 136H421.992L417.812 124.523H419.531ZM429 133.773C429 134.18 429.148 134.5 429.445 134.734C429.742 134.969 430.094 135.086 430.5 135.086C430.995 135.086 431.474 134.971 431.938 134.742C432.719 134.362 433.109 133.74 433.109 132.875V131.742C432.938 131.852 432.716 131.943 432.445 132.016C432.174 132.089 431.909 132.141 431.648 132.172L430.797 132.281C430.286 132.349 429.904 132.456 429.648 132.602C429.216 132.846 429 133.237 429 133.773ZM432.406 130.93C432.729 130.888 432.945 130.753 433.055 130.523C433.117 130.398 433.148 130.219 433.148 129.984C433.148 129.505 432.977 129.159 432.633 128.945C432.294 128.727 431.807 128.617 431.172 128.617C430.438 128.617 429.917 128.815 429.609 129.211C429.438 129.43 429.326 129.755 429.273 130.188H427.961C427.987 129.156 428.32 128.44 428.961 128.039C429.607 127.633 430.354 127.43 431.203 127.43C432.188 127.43 432.987 127.617 433.602 127.992C434.211 128.367 434.516 128.951 434.516 129.742V134.562C434.516 134.708 434.544 134.826 434.602 134.914C434.664 135.003 434.792 135.047 434.984 135.047C435.047 135.047 435.117 135.044 435.195 135.039C435.273 135.029 435.357 135.016 435.445 135V136.039C435.227 136.102 435.06 136.141 434.945 136.156C434.831 136.172 434.674 136.18 434.477 136.18C433.992 136.18 433.641 136.008 433.422 135.664C433.307 135.482 433.227 135.224 433.18 134.891C432.893 135.266 432.482 135.591 431.945 135.867C431.409 136.143 430.818 136.281 430.172 136.281C429.396 136.281 428.76 136.047 428.266 135.578C427.776 135.104 427.531 134.513 427.531 133.805C427.531 133.029 427.773 132.427 428.258 132C428.742 131.573 429.378 131.31 430.164 131.211L432.406 130.93ZM436.867 124.523H438.273V136H436.867V124.523ZM441.797 127.633V133.188C441.797 133.615 441.865 133.964 442 134.234C442.25 134.734 442.716 134.984 443.398 134.984C444.378 134.984 445.044 134.547 445.398 133.672C445.591 133.203 445.688 132.56 445.688 131.742V127.633H447.094V136H445.766L445.781 134.766C445.599 135.083 445.372 135.352 445.102 135.57C444.565 136.008 443.914 136.227 443.148 136.227C441.956 136.227 441.143 135.828 440.711 135.031C440.477 134.604 440.359 134.034 440.359 133.32V127.633H441.797ZM452.781 127.445C453.375 127.445 453.951 127.586 454.508 127.867C455.065 128.143 455.49 128.503 455.781 128.945C456.062 129.367 456.25 129.859 456.344 130.422C456.427 130.807 456.469 131.422 456.469 132.266H450.336C450.362 133.115 450.562 133.797 450.938 134.312C451.312 134.823 451.893 135.078 452.68 135.078C453.414 135.078 454 134.836 454.438 134.352C454.688 134.07 454.865 133.745 454.969 133.375H456.352C456.315 133.682 456.193 134.026 455.984 134.406C455.781 134.781 455.552 135.089 455.297 135.328C454.87 135.745 454.341 136.026 453.711 136.172C453.372 136.255 452.99 136.297 452.562 136.297C451.521 136.297 450.638 135.919 449.914 135.164C449.19 134.404 448.828 133.341 448.828 131.977C448.828 130.633 449.193 129.542 449.922 128.703C450.651 127.865 451.604 127.445 452.781 127.445ZM455.023 131.148C454.966 130.539 454.833 130.052 454.625 129.688C454.24 129.01 453.596 128.672 452.695 128.672C452.049 128.672 451.508 128.906 451.07 129.375C450.633 129.839 450.401 130.43 450.375 131.148H455.023ZM459.039 133.375C459.081 133.844 459.198 134.203 459.391 134.453C459.745 134.906 460.359 135.133 461.234 135.133C461.755 135.133 462.214 135.021 462.609 134.797C463.005 134.568 463.203 134.216 463.203 133.742C463.203 133.383 463.044 133.109 462.727 132.922C462.523 132.807 462.122 132.674 461.523 132.523L460.406 132.242C459.693 132.065 459.167 131.867 458.828 131.648C458.224 131.268 457.922 130.742 457.922 130.07C457.922 129.279 458.206 128.638 458.773 128.148C459.346 127.659 460.115 127.414 461.078 127.414C462.339 127.414 463.247 127.784 463.805 128.523C464.154 128.992 464.323 129.497 464.312 130.039H462.984C462.958 129.721 462.846 129.432 462.648 129.172C462.326 128.802 461.766 128.617 460.969 128.617C460.438 128.617 460.034 128.719 459.758 128.922C459.487 129.125 459.352 129.393 459.352 129.727C459.352 130.091 459.531 130.383 459.891 130.602C460.099 130.732 460.406 130.846 460.812 130.945L461.742 131.172C462.753 131.417 463.43 131.654 463.773 131.883C464.32 132.242 464.594 132.807 464.594 133.578C464.594 134.323 464.31 134.966 463.742 135.508C463.18 136.049 462.32 136.32 461.164 136.32C459.919 136.32 459.036 136.039 458.516 135.477C458 134.909 457.724 134.208 457.688 133.375H459.039ZM470.992 124.523H479.359V125.93H472.508V129.414H478.844V130.742H472.508V134.633H479.477V136H470.992V124.523ZM482.219 131.914C482.219 132.81 482.409 133.56 482.789 134.164C483.169 134.768 483.779 135.07 484.617 135.07C485.268 135.07 485.802 134.792 486.219 134.234C486.641 133.672 486.852 132.867 486.852 131.82C486.852 130.763 486.635 129.982 486.203 129.477C485.771 128.966 485.237 128.711 484.602 128.711C483.893 128.711 483.318 128.982 482.875 129.523C482.438 130.065 482.219 130.862 482.219 131.914ZM484.336 127.484C484.977 127.484 485.513 127.62 485.945 127.891C486.195 128.047 486.479 128.32 486.797 128.711V124.484H488.148V136H486.883V134.836C486.555 135.352 486.167 135.724 485.719 135.953C485.271 136.182 484.758 136.297 484.18 136.297C483.247 136.297 482.44 135.906 481.758 135.125C481.076 134.339 480.734 133.294 480.734 131.992C480.734 130.773 481.044 129.719 481.664 128.828C482.289 127.932 483.18 127.484 484.336 127.484ZM491.641 127.633V133.188C491.641 133.615 491.708 133.964 491.844 134.234C492.094 134.734 492.56 134.984 493.242 134.984C494.221 134.984 494.888 134.547 495.242 133.672C495.435 133.203 495.531 132.56 495.531 131.742V127.633H496.938V136H495.609L495.625 134.766C495.443 135.083 495.216 135.352 494.945 135.57C494.409 136.008 493.758 136.227 492.992 136.227C491.799 136.227 490.987 135.828 490.555 135.031C490.32 134.604 490.203 134.034 490.203 133.32V127.633H491.641ZM502.367 127.391C503.31 127.391 504.076 127.62 504.664 128.078C505.258 128.536 505.615 129.326 505.734 130.445H504.367C504.284 129.93 504.094 129.503 503.797 129.164C503.5 128.82 503.023 128.648 502.367 128.648C501.471 128.648 500.831 129.086 500.445 129.961C500.195 130.529 500.07 131.229 500.07 132.062C500.07 132.901 500.247 133.607 500.602 134.18C500.956 134.753 501.513 135.039 502.273 135.039C502.857 135.039 503.318 134.862 503.656 134.508C504 134.148 504.237 133.659 504.367 133.039H505.734C505.578 134.148 505.188 134.961 504.562 135.477C503.938 135.987 503.138 136.242 502.164 136.242C501.07 136.242 500.198 135.844 499.547 135.047C498.896 134.245 498.57 133.245 498.57 132.047C498.57 130.578 498.927 129.435 499.641 128.617C500.354 127.799 501.263 127.391 502.367 127.391ZM508.219 133.773C508.219 134.18 508.367 134.5 508.664 134.734C508.961 134.969 509.312 135.086 509.719 135.086C510.214 135.086 510.693 134.971 511.156 134.742C511.938 134.362 512.328 133.74 512.328 132.875V131.742C512.156 131.852 511.935 131.943 511.664 132.016C511.393 132.089 511.128 132.141 510.867 132.172L510.016 132.281C509.505 132.349 509.122 132.456 508.867 132.602C508.435 132.846 508.219 133.237 508.219 133.773ZM511.625 130.93C511.948 130.888 512.164 130.753 512.273 130.523C512.336 130.398 512.367 130.219 512.367 129.984C512.367 129.505 512.195 129.159 511.852 128.945C511.513 128.727 511.026 128.617 510.391 128.617C509.656 128.617 509.135 128.815 508.828 129.211C508.656 129.43 508.544 129.755 508.492 130.188H507.18C507.206 129.156 507.539 128.44 508.18 128.039C508.826 127.633 509.573 127.43 510.422 127.43C511.406 127.43 512.206 127.617 512.82 127.992C513.43 128.367 513.734 128.951 513.734 129.742V134.562C513.734 134.708 513.763 134.826 513.82 134.914C513.883 135.003 514.01 135.047 514.203 135.047C514.266 135.047 514.336 135.044 514.414 135.039C514.492 135.029 514.576 135.016 514.664 135V136.039C514.445 136.102 514.279 136.141 514.164 136.156C514.049 136.172 513.893 136.18 513.695 136.18C513.211 136.18 512.859 136.008 512.641 135.664C512.526 135.482 512.445 135.224 512.398 134.891C512.112 135.266 511.701 135.591 511.164 135.867C510.628 136.143 510.036 136.281 509.391 136.281C508.615 136.281 507.979 136.047 507.484 135.578C506.995 135.104 506.75 134.513 506.75 133.805C506.75 133.029 506.992 132.427 507.477 132C507.961 131.573 508.596 131.31 509.383 131.211L511.625 130.93ZM516.328 125.297H517.75V127.633H519.086V128.781H517.75V134.242C517.75 134.534 517.849 134.729 518.047 134.828C518.156 134.885 518.339 134.914 518.594 134.914C518.661 134.914 518.734 134.914 518.812 134.914C518.891 134.909 518.982 134.901 519.086 134.891V136C518.924 136.047 518.755 136.081 518.578 136.102C518.406 136.122 518.219 136.133 518.016 136.133C517.359 136.133 516.914 135.966 516.68 135.633C516.445 135.294 516.328 134.857 516.328 134.32V128.781H515.195V127.633H516.328V125.297ZM520.5 127.672H521.93V136H520.5V127.672ZM520.5 124.523H521.93V126.117H520.5V124.523ZM527.383 135.094C528.315 135.094 528.953 134.742 529.297 134.039C529.646 133.331 529.82 132.544 529.82 131.68C529.82 130.898 529.695 130.263 529.445 129.773C529.049 129.003 528.367 128.617 527.398 128.617C526.539 128.617 525.914 128.945 525.523 129.602C525.133 130.258 524.938 131.049 524.938 131.977C524.938 132.867 525.133 133.609 525.523 134.203C525.914 134.797 526.534 135.094 527.383 135.094ZM527.438 127.391C528.516 127.391 529.427 127.75 530.172 128.469C530.917 129.188 531.289 130.245 531.289 131.641C531.289 132.99 530.961 134.104 530.305 134.984C529.648 135.865 528.63 136.305 527.25 136.305C526.099 136.305 525.185 135.917 524.508 135.141C523.831 134.359 523.492 133.312 523.492 132C523.492 130.594 523.849 129.474 524.562 128.641C525.276 127.807 526.234 127.391 527.438 127.391ZM532.969 127.633H534.305V128.82C534.701 128.331 535.12 127.979 535.562 127.766C536.005 127.552 536.497 127.445 537.039 127.445C538.227 127.445 539.029 127.859 539.445 128.688C539.674 129.141 539.789 129.789 539.789 130.633V136H538.359V130.727C538.359 130.216 538.284 129.805 538.133 129.492C537.883 128.971 537.43 128.711 536.773 128.711C536.44 128.711 536.167 128.745 535.953 128.812C535.568 128.927 535.229 129.156 534.938 129.5C534.703 129.776 534.549 130.062 534.477 130.359C534.409 130.651 534.375 131.07 534.375 131.617V136H532.969V127.633Z" fill="#E59700"/>
<path d="M68.625 12.0933L91.5 34.9683L114.375 12.0933L182.344 80.0625L91.5 170.907L0.655762 80.0625L68.625 12.0933ZM80.7183 45.75L68.625 33.6568L22.2193 80.0625L91.5 149.343L98.7743 142.069L80.7183 124.005L91.5 113.231L109.556 131.295L116.838 124.013L98.7743 105.957L109.556 95.1753L127.62 113.231L137.906 102.945L108.875 73.9067L86 96.7817L57.8433 68.625L80.7183 45.75ZM148.688 92.1558L160.781 80.0625L114.375 33.6568L79.4068 68.625L86 75.2183L108.875 52.3433L148.688 92.1558Z" fill="#E59700"/>
</svg>
