<?xml version="1.0" standalone="no"?>
<svg xmlns:xlink="http://www.w3.org/1999/xlink" id="wave" style="transform:rotate(0deg); transition: 0.3s" viewBox="0 0 1440 200" version="1.1" xmlns="http://www.w3.org/2000/svg"><defs><linearGradient id="sw-gradient-0" x1="0" x2="0" y1="1" y2="0"><stop stop-color="rgba(255, 91, 0, 1)" offset="0%"/><stop stop-color="rgba(255, 255, 0, 1)" offset="100%"/></linearGradient></defs><path style="transform:translate(0, 0px); opacity:1" fill="url(#sw-gradient-0)" d="M0,40L20,63.3C40,87,80,133,120,126.7C160,120,200,60,240,53.3C280,47,320,93,360,106.7C400,120,440,100,480,86.7C520,73,560,67,600,83.3C640,100,680,140,720,150C760,160,800,140,840,110C880,80,920,40,960,23.3C1000,7,1040,13,1080,26.7C1120,40,1160,60,1200,73.3C1240,87,1280,93,1320,93.3C1360,93,1400,87,1440,80C1480,73,1520,67,1560,80C1600,93,1640,127,1680,120C1720,113,1760,67,1800,66.7C1840,67,1880,113,1920,113.3C1960,113,2000,67,2040,60C2080,53,2120,87,2160,113.3C2200,140,2240,160,2280,146.7C2320,133,2360,87,2400,76.7C2440,67,2480,93,2520,96.7C2560,100,2600,80,2640,83.3C2680,87,2720,113,2760,116.7C2800,120,2840,100,2860,90L2880,80L2880,200L2860,200C2840,200,2800,200,2760,200C2720,200,2680,200,2640,200C2600,200,2560,200,2520,200C2480,200,2440,200,2400,200C2360,200,2320,200,2280,200C2240,200,2200,200,2160,200C2120,200,2080,200,2040,200C2000,200,1960,200,1920,200C1880,200,1840,200,1800,200C1760,200,1720,200,1680,200C1640,200,1600,200,1560,200C1520,200,1480,200,1440,200C1400,200,1360,200,1320,200C1280,200,1240,200,1200,200C1160,200,1120,200,1080,200C1040,200,1000,200,960,200C920,200,880,200,840,200C800,200,760,200,720,200C680,200,640,200,600,200C560,200,520,200,480,200C440,200,400,200,360,200C320,200,280,200,240,200C200,200,160,200,120,200C80,200,40,200,20,200L0,200Z"/><defs><linearGradient id="sw-gradient-1" x1="0" x2="0" y1="1" y2="0"><stop stop-color="rgba(255, 91, 0, 1)" offset="0%"/><stop stop-color="rgba(255, 255, 0, 1)" offset="100%"/></linearGradient></defs><path style="transform:translate(0, 50px); opacity:0.9" fill="url(#sw-gradient-1)" d="M0,0L20,0C40,0,80,0,120,13.3C160,27,200,53,240,60C280,67,320,53,360,53.3C400,53,440,67,480,83.3C520,100,560,120,600,116.7C640,113,680,87,720,70C760,53,800,47,840,66.7C880,87,920,133,960,136.7C1000,140,1040,100,1080,96.7C1120,93,1160,127,1200,120C1240,113,1280,67,1320,43.3C1360,20,1400,20,1440,26.7C1480,33,1520,47,1560,70C1600,93,1640,127,1680,116.7C1720,107,1760,53,1800,53.3C1840,53,1880,107,1920,126.7C1960,147,2000,133,2040,116.7C2080,100,2120,80,2160,60C2200,40,2240,20,2280,10C2320,0,2360,0,2400,26.7C2440,53,2480,107,2520,120C2560,133,2600,107,2640,100C2680,93,2720,107,2760,93.3C2800,80,2840,40,2860,20L2880,0L2880,200L2860,200C2840,200,2800,200,2760,200C2720,200,2680,200,2640,200C2600,200,2560,200,2520,200C2480,200,2440,200,2400,200C2360,200,2320,200,2280,200C2240,200,2200,200,2160,200C2120,200,2080,200,2040,200C2000,200,1960,200,1920,200C1880,200,1840,200,1800,200C1760,200,1720,200,1680,200C1640,200,1600,200,1560,200C1520,200,1480,200,1440,200C1400,200,1360,200,1320,200C1280,200,1240,200,1200,200C1160,200,1120,200,1080,200C1040,200,1000,200,960,200C920,200,880,200,840,200C800,200,760,200,720,200C680,200,640,200,600,200C560,200,520,200,480,200C440,200,400,200,360,200C320,200,280,200,240,200C200,200,160,200,120,200C80,200,40,200,20,200L0,200Z"/></svg>